<?xml version="1.0" encoding="utf-8"?>
<!-- Generator: Adobe Illustrator 21.1.0, SVG Export Plug-In . SVG Version: 6.00 Build 0)  -->
<svg version="1.1" xmlns="http://www.w3.org/2000/svg" xmlns:xlink="http://www.w3.org/1999/xlink" x="0px" y="0px"
	 viewBox="0 0 1280 1024" style="enable-background:new 0 0 1280 1024;" xml:space="preserve">
<style type="text/css">
	.st0{fill:none;stroke:#A8ADAC;stroke-width:5.215;stroke-miterlimit:10;}
	.st1{fill:none;stroke:#0CF4D3;stroke-width:5.215;stroke-miterlimit:10;}
	.st2{fill:#FFFFFF;stroke:#0CF4D3;stroke-width:2;stroke-miterlimit:10;}
	.st3{fill:#A8ADAC;}
	.st4{fill:#C6CCCA;}
	.st5{fill:#0CF4D3;}
	.st6{font-family:'MyriadPro-Regular';}
	.st7{font-size:25.8455px;}
</style>
<g id="Capa_1">
	<g>
		<path class="st0" d="M609.1,445c-22.7,0-41,10.8-41,24.2c0,5.5,3.1,10.5,8.3,14.6c-1.9,3.8-3.4,7.9-4.6,12.2
			c4.3-2.7,8.7-5.2,13.1-7.2c6.8,2.9,15.1,4.7,24.2,4.7c22.7,0,41-10.8,41-24.2C650.1,455.8,631.7,445,609.1,445z"/>
	</g>
	<g>
		<path class="st1" d="M609.1,443c-22.7,0-41,10.8-41,24.2c0,5.5,3.1,10.5,8.3,14.6c-1.9,3.8-3.4,7.9-4.6,12.2
			c4.3-2.7,8.7-5.2,13.1-7.2c6.8,2.9,15.1,4.7,24.2,4.7c22.7,0,41-10.8,41-24.2C650.1,453.8,631.7,443,609.1,443z"/>
	</g>
	<path class="st2" d="M470.7,457.7"/>
</g>
<g id="Capa_2">
	<g>
		<g>
			<path class="st3" d="M446.2,443v54.7h-13.8V443H446.2z"/>
			<path class="st3" d="M481.1,496.6h-10.3v-3.7c-1.5,2.9-4,4.3-7.5,4.3c-3.2,0-5.8-1.3-7.8-3.8c-2-2.5-3-6.2-3-11c0-4.5,1-8,3-10.7
				s4.7-4,8-4c2.8,0,5,1.1,6.8,3.2v-11.8h10.8V496.6z M470.3,478.6c0-2.5-1-3.8-3.1-3.8c-1.4,0-2.4,0.8-2.8,2.4
				c-0.4,1.6-0.7,3.5-0.7,5.9c0,4.5,1.2,6.8,3.5,6.8c0.9,0,1.6-0.4,2.2-1.1c0.6-0.7,0.9-1.8,0.9-3.3V478.6z"/>
			<path class="st3" d="M505.4,486.6l10.2,0.7c-0.6,2.7-2.1,5.1-4.6,7c-2.5,1.9-5.8,2.9-10.1,2.9c-4.7,0-8.5-1.4-11.3-4.1
				s-4.2-6.1-4.2-10.1c0-4.2,1.4-7.7,4.1-10.6c2.8-2.9,6.5-4.3,11.1-4.3c4.5,0,8.1,1.4,10.8,4.1c2.8,2.7,4.1,6.4,4.1,11.1
				c0,0.4,0,0.9,0,1.6h-18.7c0,1.8,0.3,3.1,0.9,3.9c0.6,0.9,1.7,1.3,3.4,1.3C503.5,490,504.9,488.9,505.4,486.6z M504.6,479.3
				c0-1.9-0.4-3.2-1.1-3.8c-0.7-0.7-1.7-1-2.8-1c-2.6,0-3.9,1.6-3.9,4.8H504.6z"/>
			<path class="st3" d="M548,496.6h-10.4c-0.3-1.2-0.4-2.5-0.4-3.9c-2,3-5,4.5-9,4.5c-3.3,0-5.8-0.8-7.4-2.5s-2.5-3.6-2.5-5.8
				c0-2.9,1.3-5.3,4-7.2c2.7-1.8,7.4-2.9,14.3-3.3v-0.6c0-1.2-0.3-2-0.8-2.4s-1.4-0.6-2.5-0.6c-2.5,0-3.9,1-4.2,3l-10-0.9
				c1.4-5.8,6.3-8.8,14.6-8.8c2.3,0,4.3,0.2,6.2,0.7c1.9,0.4,3.4,1.2,4.5,2.1c1.1,1,1.8,2,2.2,3c0.4,1.1,0.6,3.1,0.6,6.1v11.2
				C547.2,493.3,547.5,495.1,548,496.6z M536.7,483.5c-4.7,0.5-7,2-7,4.5c0,1.7,0.9,2.5,2.8,2.5c1.2,0,2.2-0.3,3-1
				c0.8-0.7,1.2-2.2,1.2-4.6V483.5z"/>
		</g>
	</g>
</g>
<g id="Capa_3">
	<path class="st4" d="M601,471.8"/>
	<text transform="matrix(1 0 0 1 488.6152 459.0977)" class="st5 st6 st7">digital</text>
</g>
</svg>
